<?xml version="1.0" encoding="UTF-8"?>
<svg version="1.1" xmlns="http://www.w3.org/2000/svg" width="512" height="512">
<path d="M0 0 C8.80288754 6.34043826 15.4186507 14.72648904 17.58203125 25.4921875 C18.94204265 38.11321229 17.85012226 49.1232905 10.01953125 59.4921875 C8.3681997 61.49290991 6.87705248 63.26287256 4.828125 64.85546875 C3.29523229 66.51978054 3.29523229 66.51978054 3.62109375 69.28515625 C3.91113281 70.96544922 3.91113281 70.96544922 4.20703125 72.6796875 C4.41328125 73.91976562 4.61953125 75.15984375 4.83203125 76.4375 C5.72237747 81.32243717 6.63025847 86.20631202 7.61572266 91.07299805 C8.31344656 94.60057906 8.73391078 97.89540415 8.58203125 101.4921875 C9.71253906 101.59660156 10.84304688 101.70101562 12.0078125 101.80859375 C16.82367556 102.41203486 21.20201618 103.83316295 25.76953125 105.4296875 C26.55005859 105.69458984 27.33058594 105.95949219 28.13476562 106.23242188 C31.27971193 107.307412 34.34725435 108.38707817 37.3828125 109.74609375 C40.04863594 110.65048501 41.0257082 110.66237074 43.58203125 109.4921875 C46.0078281 107.46913246 46.0078281 107.46913246 48.39453125 104.9296875 C49.26980469 104.02863281 50.14507812 103.12757812 51.046875 102.19921875 C53.77560713 99.28548783 56.43210009 96.32753334 59.01171875 93.28125 C60.58203125 91.4921875 60.58203125 91.4921875 62.77734375 89.89453125 C65.67291084 86.04004259 64.82573212 82.09127889 64.58203125 77.4296875 C64.29159876 65.23463467 66.28253863 57.14978408 74.38671875 47.71484375 C82.6218319 39.37715801 92.90010879 35.14571664 104.58203125 34.9921875 C115.20058751 35.1317414 124.47385688 38.59487471 132.58203125 45.4921875 C142.20234891 55.58875851 145.07948079 66.27939175 144.859375 79.890625 C144.39705064 91.18422017 138.89200621 99.5245768 130.95703125 107.1796875 C125.95000594 111.37295153 119.06267529 115.18488782 112.44262695 115.63891602 C109.78575212 115.89292957 107.97068432 116.27364722 105.58203125 117.4921875 C102.6029581 121.27509513 100.66620645 125.4523687 98.64453125 129.8046875 C97.80051758 131.51688477 97.80051758 131.51688477 96.93945312 133.26367188 C94.64852525 137.94679924 92.47341253 142.63268978 90.58203125 147.4921875 C91.19949219 148.19601563 91.81695312 148.89984375 92.453125 149.625 C98.92579033 157.17151696 104.39268521 165.01876256 109.58203125 173.4921875 C114.43998685 173.02858565 119.29529139 172.55059644 124.1484375 172.0390625 C127.46798168 171.69129517 130.77825142 171.40196346 134.109375 171.1953125 C140.65687457 170.99431493 140.65687457 170.99431493 146.07421875 167.9375 C147.00249532 165.98871924 147.00249532 165.98871924 147.65234375 163.84765625 C151.02549534 155.30139402 159.62921176 149.09787005 167.77734375 145.53125 C178.12785181 141.80779991 189.65221251 142.26628895 199.86328125 146.1640625 C209.83042406 151.03306904 217.45478138 159.23359047 221.58203125 169.4921875 C225.30667194 180.66610957 224.26466046 191.73801363 219.58203125 202.4921875 C213.86387252 212.67683427 205.84486944 219.78103344 194.53515625 223.00390625 C193.890625 223.16503906 193.24609375 223.32617188 192.58203125 223.4921875 C191.73640625 223.7190625 190.89078125 223.9459375 190.01953125 224.1796875 C180.6720637 225.37808078 171.56208974 224.26691555 163.56640625 219.1015625 C159.77503947 217.93728451 156.12654331 220.22104995 152.72949219 221.91259766 C151.28751465 222.71383057 151.28751465 222.71383057 149.81640625 223.53125 C148.23472656 224.40136719 148.23472656 224.40136719 146.62109375 225.2890625 C145.53570312 225.89234375 144.4503125 226.495625 143.33203125 227.1171875 C141.16225167 228.32149139 138.99047687 229.5222099 136.81640625 230.71875 C135.85959961 231.25064941 134.90279297 231.78254883 133.91699219 232.33056641 C131.58203125 233.4921875 131.58203125 233.4921875 129.58203125 233.4921875 C129.58203125 245.0421875 129.58203125 256.5921875 129.58203125 268.4921875 C136.88081662 271.97777383 136.88081662 271.97777383 144.18017578 275.4621582 C145.09911621 275.90132568 146.01805664 276.34049316 146.96484375 276.79296875 C147.9487207 277.26041504 148.93259766 277.72786133 149.94628906 278.20947266 C152.01842079 279.21789986 154.05432406 280.30079574 156.07421875 281.41015625 C158.44737783 282.67068256 158.44737783 282.67068256 160.65625 282.3046875 C161.60951172 281.9025 161.60951172 281.9025 162.58203125 281.4921875 C163.73638672 281.028125 163.73638672 281.028125 164.9140625 280.5546875 C165.73261719 280.2040625 166.55117188 279.8534375 167.39453125 279.4921875 C178.15938826 275.14211351 188.75440005 275.6593977 199.58203125 279.4921875 C210.50759189 284.72947356 217.7147077 292.83868638 221.890625 304.16796875 C225.14781247 315.11727126 224.24465324 325.79128998 219.36328125 336.0546875 C213.70939771 346.35731974 205.3530518 352.93264803 194.296875 356.57421875 C183.85729155 359.15392654 172.78919167 358.26506342 163.25390625 353.2734375 C157.63838338 349.83536227 149.82008843 344.20128964 148.06982422 337.54394531 C147.26262978 334.8680742 146.57673858 333.48715934 144.58203125 331.4921875 C138.95293184 329.55658387 133.21187911 328.80066658 127.33203125 327.9921875 C125.71173185 327.74286085 124.09192803 327.49029063 122.47265625 327.234375 C118.51386755 326.61594035 114.55086332 326.04232264 110.58203125 325.4921875 C110.07414062 326.33998779 109.56625 327.18778809 109.04296875 328.0612793 C105.20113751 334.42229132 101.29907905 340.5445742 96.58203125 346.3046875 C96.09347656 346.91376953 95.60492188 347.52285156 95.1015625 348.15039062 C93.93494245 349.60294696 92.75953833 351.0484426 91.58203125 352.4921875 C97.87703297 366.80313001 97.87703297 366.80313001 104.8046875 380.8125 C105.58203125 382.4921875 105.58203125 382.4921875 105.58203125 384.4921875 C106.67257812 384.60433594 106.67257812 384.60433594 107.78515625 384.71875 C118.69293308 386.14515158 128.24589533 389.94105304 135.828125 398.140625 C144.23077359 409.40653692 145.72594023 420.85567034 144.58203125 434.4921875 C143.75887309 438.2128624 142.48652209 441.20530922 140.58203125 444.4921875 C140.15792969 445.26820313 139.73382813 446.04421875 139.296875 446.84375 C133.65103017 456.24824918 125.06365963 461.75617834 114.765625 465.078125 C102.26591702 467.44837374 90.51965924 464.98795881 79.90234375 458.21484375 C72.28541795 452.55985338 66.40357271 443.89417687 64.58203125 434.4921875 C64.70654297 432.33251953 64.70654297 432.33251953 65.01171875 430 C66.11154018 420.31800616 66.11154018 420.31800616 63.25927734 411.28613281 C59.81060082 407.27475137 55.71327549 404.09829852 51.48046875 400.95410156 C48.78601135 398.87920304 46.50686198 396.56280553 44.14453125 394.1171875 C43.44457031 393.40820312 42.74460937 392.69921875 42.0234375 391.96875 C41.30994141 391.23785156 41.30994141 391.23785156 40.58203125 390.4921875 C39.40640625 390.8840625 38.23078125 391.2759375 37.01953125 391.6796875 C36.20355469 391.95039063 35.38757813 392.22109375 34.546875 392.5 C32.3484955 393.23568958 30.15371727 393.98215929 27.9609375 394.734375 C26.6679719 395.17448843 25.37500315 395.61459258 24.08203125 396.0546875 C22.87546875 396.46847656 21.66890625 396.88226563 20.42578125 397.30859375 C16.21379507 398.67793639 11.91596428 399.59797251 7.58203125 400.4921875 C7.00687154 404.36916169 6.43741059 408.24692743 5.87304688 412.12548828 C5.58629592 414.08800026 5.29513412 416.04986613 5.00390625 418.01171875 C4.8234375 419.25566406 4.64296875 420.49960937 4.45703125 421.78125 C4.28945313 422.92287598 4.121875 424.06450195 3.94921875 425.24072266 C3.036464 431.29690101 3.036464 431.29690101 5.15625 436.6953125 C5.85363281 437.37078125 6.55101562 438.04625 7.26953125 438.7421875 C16.44296152 448.35477135 18.07285528 458.10645481 17.85546875 470.9296875 C17.40170794 481.87385904 12.29820721 490.03534655 4.515625 497.46484375 C-5.66750021 506.04490094 -16.43585813 507.61089799 -29.34716797 506.71533203 C-40.11303799 505.55522767 -48.41804625 499.3274193 -55.23046875 491.2421875 C-62.69323249 480.88109459 -63.75601441 469.90936834 -62.41796875 457.4921875 C-60.74508997 449.16738836 -56.31173427 441.50929208 -49.6953125 436.078125 C-47.78673208 433.70845023 -48.23713902 432.10490872 -48.54296875 429.1171875 C-48.65769531 427.98152344 -48.77242187 426.84585937 -48.890625 425.67578125 C-49.91495553 417.26118873 -51.15439164 408.87363827 -52.41796875 400.4921875 C-54.23167969 400.03779297 -54.23167969 400.03779297 -56.08203125 399.57421875 C-66.0786147 397.02976419 -75.78223594 394.18614706 -85.41796875 390.4921875 C-86.18874756 391.27082153 -86.18874756 391.27082153 -86.97509766 392.06518555 C-89.32836262 394.43937196 -91.6856246 396.80955156 -94.04296875 399.1796875 C-94.85121094 399.99630859 -95.65945312 400.81292969 -96.4921875 401.65429688 C-97.28496094 402.45029297 -98.07773438 403.24628906 -98.89453125 404.06640625 C-99.66716309 404.84693359 -100.43979492 405.62746094 -101.23583984 406.43164062 C-103.09099141 408.18342841 -104.88675718 409.53228244 -106.99609375 410.94140625 C-109.73181099 413.82273425 -109.78636143 414.39535307 -109.86328125 418.1875 C-109.77928454 419.99859566 -109.67145333 421.80870342 -109.54296875 423.6171875 C-109.13406313 435.82281153 -111.10684645 443.82105158 -119.22265625 453.26953125 C-127.4577694 461.60721699 -137.73604629 465.83865836 -149.41796875 465.9921875 C-160.03652501 465.8526336 -169.30979438 462.38950029 -177.41796875 455.4921875 C-187.03828641 445.39561649 -189.91541829 434.70498325 -189.6953125 421.09375 C-189.23298814 409.80015483 -183.72794371 401.4597982 -175.79296875 393.8046875 C-168.48146989 387.69546188 -159.8158104 384.96207958 -150.41796875 384.4921875 C-150.1461377 383.62706543 -149.87430664 382.76194336 -149.59423828 381.87060547 C-148.45221543 378.59054896 -147.11129096 375.56138439 -145.59765625 372.4375 C-145.06269531 371.32890625 -144.52773437 370.2203125 -143.9765625 369.078125 C-143.42097656 367.93601562 -142.86539063 366.79390625 -142.29296875 365.6171875 C-141.72964844 364.451875 -141.16632813 363.2865625 -140.5859375 362.0859375 C-139.19984114 359.21977216 -137.81042353 356.35526772 -136.41796875 353.4921875 C-136.79091064 352.99734863 -137.16385254 352.50250977 -137.5480957 351.99267578 C-140.94191383 347.48009309 -144.30558488 342.94892953 -147.60546875 338.3671875 C-148.24258789 337.49513672 -148.24258789 337.49513672 -148.89257812 336.60546875 C-149.30701172 336.02925781 -149.72144531 335.45304687 -150.1484375 334.859375 C-150.51348389 334.35519043 -150.87853027 333.85100586 -151.25463867 333.33154297 C-152.84587709 330.81561636 -154.11585597 328.16663306 -155.41796875 325.4921875 C-160.19474643 326.1543151 -164.96128008 326.86339697 -169.72460938 327.61621094 C-171.34441832 327.86546211 -172.96624621 328.10195065 -174.58984375 328.32519531 C-183.63157312 329.16683486 -183.63157312 329.16683486 -191.23925781 333.3137207 C-192.21592598 335.3563043 -192.8166674 337.31474777 -193.41796875 339.4921875 C-198.08580597 345.76569054 -203.33084817 351.08704753 -210.41796875 354.4921875 C-211.05734375 354.80929687 -211.69671875 355.12640625 -212.35546875 355.453125 C-222.31681028 359.56595162 -234.84965928 358.62934814 -244.734375 354.8203125 C-254.67596946 349.90016386 -262.2878737 341.75785644 -266.41796875 331.4921875 C-270.14260944 320.31826543 -269.10059796 309.24636137 -264.41796875 298.4921875 C-258.69981002 288.30754073 -250.68080694 281.20334156 -239.37109375 277.98046875 C-238.7265625 277.81933594 -238.08203125 277.65820312 -237.41796875 277.4921875 C-236.57234375 277.2653125 -235.72671875 277.0384375 -234.85546875 276.8046875 C-226.35654618 275.71508204 -216.17630695 276.41834422 -208.8359375 281.16015625 C-205.72988143 282.87124691 -204.79161693 282.4337404 -201.41796875 281.4921875 C-199.26182815 280.56713976 -197.13184007 279.58000146 -195.0234375 278.55078125 C-193.93957764 278.02540771 -192.85571777 277.50003418 -191.73901367 276.95874023 C-190.37494385 276.28915283 -189.01087402 275.61956543 -187.60546875 274.9296875 C-183.25359375 272.8053125 -178.90171875 270.6809375 -174.41796875 268.4921875 C-174.41796875 256.9421875 -174.41796875 245.3921875 -174.41796875 233.4921875 C-176.39796875 232.8321875 -178.37796875 232.1721875 -180.41796875 231.4921875 C-182.32963336 230.50249465 -184.2163439 229.46342559 -186.078125 228.3828125 C-187.11904297 227.79371094 -188.15996094 227.20460937 -189.23242188 226.59765625 C-191.40748479 225.35513685 -193.57675021 224.10241629 -195.74023438 222.83984375 C-196.77986328 222.25589844 -197.81949219 221.67195312 -198.890625 221.0703125 C-199.83172119 220.52793945 -200.77281738 219.98556641 -201.74243164 219.42675781 C-204.40777913 218.20525747 -204.40777913 218.20525747 -207.12304688 219.2800293 C-207.88037109 219.6800415 -208.63769531 220.08005371 -209.41796875 220.4921875 C-221.53677007 224.89710833 -232.09036621 225.85594061 -244.41796875 221.4921875 C-255.34352939 216.25490144 -262.5506452 208.14568862 -266.7265625 196.81640625 C-269.98374997 185.86710374 -269.08059074 175.19308502 -264.19921875 164.9296875 C-258.54533521 154.62705526 -250.1889893 148.05172697 -239.1328125 144.41015625 C-228.69322905 141.83044846 -217.62512917 142.71931158 -208.08984375 147.7109375 C-202.35000051 151.22512724 -194.82980974 156.77404839 -192.82446289 163.47558594 C-191.98884252 166.02914434 -191.2828037 167.53409737 -189.41796875 169.4921875 C-184.53337098 171.12234326 -179.57707718 171.53561509 -174.48046875 171.9921875 C-173.09533081 172.1451018 -171.71055346 172.30132067 -170.32617188 172.4609375 C-162.38300484 173.50927825 -162.38300484 173.50927825 -154.41796875 173.4921875 C-152.75389927 171.40515416 -151.52210976 169.54435292 -150.23046875 167.2421875 C-145.92108887 160.02928526 -140.95661087 153.80554574 -135.41796875 147.4921875 C-141.66758464 128.73909486 -141.66758464 128.73909486 -154.26171875 115.171875 C-157.99108805 114.3304929 -161.62177612 113.90509191 -165.41796875 113.4921875 C-177.15669417 108.44563265 -183.56522686 100.03780495 -188.41796875 88.4921875 C-191.03605349 79.4600816 -190.85506617 67.13923696 -186.671875 58.65625 C-186.05119141 57.58503906 -186.05119141 57.58503906 -185.41796875 56.4921875 C-184.99386719 55.71617188 -184.56976563 54.94015625 -184.1328125 54.140625 C-178.48641974 44.7352131 -169.91494392 39.25648728 -159.62890625 35.91015625 C-147.4331901 33.60460567 -136.30764879 35.78527019 -125.73046875 42.1171875 C-118.44404178 47.32737453 -112.87944885 54.55155968 -109.984375 63.04296875 C-109.35387454 66.88249915 -109.50980976 70.3293489 -109.71459961 74.19921875 C-110.50000724 83.07991526 -110.50000724 83.07991526 -107.23046875 91.01171875 C-104.56251903 93.83071113 -101.49162929 96.1310197 -98.41796875 98.4921875 C-97.06464236 99.93409525 -95.74590339 101.41006075 -94.48046875 102.9296875 C-93.93648437 103.55617188 -93.3925 104.18265625 -92.83203125 104.828125 C-91.65076139 106.21823815 -90.49927776 107.63359145 -89.35546875 109.0546875 C-87.46797233 110.78707482 -87.46797233 110.78707482 -84.80859375 110.265625 C-80.79661651 109.35045047 -77.07576547 108.00115887 -73.23046875 106.5546875 C-66.67960538 104.15537963 -60.34691378 102.44431351 -53.41796875 101.4921875 C-53.37043457 100.90228027 -53.32290039 100.31237305 -53.27392578 99.70458984 C-52.59384762 92.08086905 -51.20674864 84.67398388 -49.703125 77.17578125 C-49.52394531 76.24121094 -49.34476563 75.30664062 -49.16015625 74.34375 C-48.91048096 73.08812256 -48.91048096 73.08812256 -48.65576172 71.80712891 C-48.31008423 68.44191955 -48.73455488 66.33359489 -50.87109375 63.703125 C-51.4640625 63.09726563 -52.05703125 62.49140625 -52.66796875 61.8671875 C-61.93507063 51.6848163 -63.14115056 40.90198582 -62.59277344 27.67578125 C-61.80456858 17.82982564 -56.30504396 10.15754285 -49.3515625 3.51953125 C-35.64424613 -8.02992494 -15.26222402 -9.51731579 0 0 Z M-42.19140625 21.6484375 C-46.12880741 27.56707874 -46.10119979 33.60593785 -45.41796875 40.4921875 C-43.75310729 47.3181195 -38.77210601 51.23117024 -33.5625 55.609375 C-31.41796875 57.4921875 -31.41796875 57.4921875 -30.41796875 59.4921875 C-30.1356307 64.97773698 -30.89880401 69.96570659 -31.94921875 75.3125 C-32.10459106 76.13418671 -32.25996338 76.95587341 -32.42004395 77.80245972 C-32.91334129 80.40855714 -33.41487481 83.01296491 -33.91796875 85.6171875 C-34.42041575 88.22865941 -34.92092058 90.84043928 -35.41589355 93.45333862 C-35.72298416 95.07360583 -36.03438738 96.69306338 -36.35070801 98.31155396 C-37.92258588 104.91655251 -37.92258588 104.91655251 -36.41796875 111.2109375 C-33.34258577 113.18110472 -29.96803487 113.48052317 -26.41796875 113.9921875 C-19.06565619 115.05186244 -19.06565619 115.05186244 -16.44140625 116.8359375 C-15.19018727 118.86081097 -15.0160117 120.11996691 -15.04296875 122.4921875 C-15.03523437 123.1728125 -15.0275 123.8534375 -15.01953125 124.5546875 C-15.56198286 127.1924914 -16.16750392 127.99034669 -18.41796875 129.4921875 C-28.84816936 130.91100155 -38.68350295 129.35417467 -47.48046875 123.4296875 C-49.41796875 121.4921875 -49.41796875 121.4921875 -51.41796875 118.4921875 C-83.88096866 123.28181044 -113.02056347 144.72548496 -132.41796875 170.4921875 C-135.80854489 175.43219859 -138.76693302 180.6434351 -141.76953125 185.82421875 C-143.71668688 188.90826202 -144.80469787 190.33968364 -148.4074707 191.2355957 C-153.3367645 191.7595704 -158.13814626 191.01158438 -163.0234375 190.34765625 C-164.02506424 190.21780838 -165.02669098 190.08796051 -166.05867004 189.95417786 C-168.16625944 189.67867376 -170.27324703 189.39853049 -172.37963867 189.11401367 C-175.60378006 188.67991487 -178.82987836 188.26372485 -182.05664062 187.84960938 C-184.10821319 187.57918705 -186.15965073 187.30773797 -188.2109375 187.03515625 C-189.17452682 186.91109909 -190.13811615 186.78704193 -191.13090515 186.65922546 C-192.02896378 186.53602432 -192.9270224 186.41282318 -193.85229492 186.28588867 C-194.6394841 186.18072433 -195.42667328 186.07556 -196.23771667 185.96720886 C-198.59712896 185.45315306 -200.3658107 184.76417304 -202.41796875 183.4921875 C-203.7265625 180.8828125 -203.7265625 180.8828125 -204.85546875 177.7421875 C-208.09902521 169.56490812 -211.49475242 165.15257419 -219.67578125 161.4140625 C-226.35197385 159.16964448 -232.32026837 159.66670188 -238.73046875 162.4921875 C-244.69641083 165.84032351 -247.98162167 170.35833932 -250.79296875 176.4921875 C-252.42339052 184.31821199 -251.42590602 190.56014952 -247.41796875 197.4921875 C-242.89005199 202.95021809 -237.43327122 206.34444185 -230.41796875 207.4921875 C-222.67331945 208.13013225 -217.63429199 205.22332233 -211.375 200.890625 C-207.48071788 199.04894336 -205.61036983 199.57546919 -201.41796875 200.4921875 C-198.67277805 201.61327961 -196.10367855 202.9928705 -193.5078125 204.421875 C-192.77728165 204.81287384 -192.04675079 205.20387268 -191.29408264 205.60671997 C-188.97571173 206.85029781 -186.66554756 208.10828502 -184.35546875 209.3671875 C-182.8006667 210.20542297 -181.24533251 211.04267218 -179.68945312 211.87890625 C-177.49168639 213.06025048 -175.29475552 214.2428756 -173.10203552 215.43356323 C-169.24214765 217.52837111 -165.35882491 219.55180285 -161.41796875 221.4921875 C-157.08267682 218.47016817 -155.07478795 215.50913031 -152.73046875 210.8046875 C-149.61247506 204.58944066 -149.61247506 204.58944066 -147.41796875 203.4921875 C-143.42537754 202.95984201 -141.85286798 203.19608589 -138.48046875 205.4921875 C-136.41796875 208.4921875 -136.41796875 208.4921875 -136.29296875 212.1796875 C-137.80115392 219.70638519 -141.90254766 227.22189624 -147.41796875 232.4921875 C-149.11810216 233.42865167 -150.84623332 234.31540527 -152.59375 235.16015625 C-153.49649658 235.59996826 -154.39924316 236.03978027 -155.3293457 236.49291992 C-156.01859131 236.82267822 -156.70783691 237.15243652 -157.41796875 237.4921875 C-157.87170521 254.25251435 -157.94528796 270.22062282 -153.41796875 286.4921875 C-153.14509033 287.49910645 -153.14509033 287.49910645 -152.86669922 288.52636719 C-147.42580612 308.02411635 -136.8567277 325.87681336 -123.40332031 340.87548828 C-118.28083955 346.60071315 -118.28083955 346.60071315 -117.41796875 349.4921875 C-117.89230428 354.52358203 -119.66745145 358.66679433 -121.83984375 363.1640625 C-122.35263885 364.24775116 -122.35263885 364.24775116 -122.87579346 365.35333252 C-123.96620522 367.65301198 -125.06700384 369.94754484 -126.16796875 372.2421875 C-126.89259151 373.76791378 -127.61655596 375.29395291 -128.33984375 376.8203125 C-130.04859707 380.41983384 -131.77175941 384.0121253 -133.50512695 387.59985352 C-134.33434746 389.31883938 -135.15681336 391.04107951 -135.97851562 392.76367188 C-136.41744141 393.66923828 -136.85636719 394.57480469 -137.30859375 395.5078125 C-137.67500977 396.26868164 -138.04142578 397.02955078 -138.41894531 397.81347656 C-139.41796875 399.4921875 -139.41796875 399.4921875 -141.41796875 400.4921875 C-145.14797014 400.98297716 -148.88090155 401.39033237 -152.62109375 401.796875 C-159.18994154 402.99981215 -164.67469668 406.01787864 -168.83984375 411.29296875 C-173.04454435 417.75356208 -173.42169097 423.94993196 -172.41796875 431.4921875 C-170.62840182 438.21695765 -165.97914272 442.56345207 -160.41796875 446.4921875 C-154.6870118 449.42134327 -147.35373729 449.57555236 -141.17578125 447.875 C-134.85635646 445.09642023 -130.2728917 439.94908936 -127.04296875 433.9296875 C-125.54328401 428.08091702 -125.29111488 423.769353 -126.9453125 417.99609375 C-128.30478892 410.79423933 -128.30478892 410.79423933 -127.41796875 407.4921875 C-124.82475576 403.87468404 -121.67216293 400.9500618 -118.41796875 397.9296875 C-117.15919922 396.71249023 -117.15919922 396.71249023 -115.875 395.47070312 C-110.11580548 389.93919769 -104.14245315 384.6713231 -98.0703125 379.48828125 C-97.50441406 378.97394531 -96.93851563 378.45960938 -96.35546875 377.9296875 C-95.76636719 377.41277344 -95.17726562 376.89585937 -94.5703125 376.36328125 C-93.16347246 374.44599903 -93.16347246 374.44599903 -93.421875 371.5859375 C-94.97771791 366.75367245 -98.4293434 364.41833038 -102.16796875 361.15234375 C-104.94672149 357.86704754 -105.34378354 355.75536416 -105.41796875 351.4921875 C-103.11287501 348.2091752 -101.54800362 346.80037883 -97.66796875 345.7421875 C-89.83522395 347.54974399 -84.75431375 353.73909597 -80.609375 360.28125 C-78.57911501 364.04888002 -77.38829409 366.66129714 -77.54296875 370.9921875 C-76.80025182 374.54498075 -76.80025182 374.54498075 -74.35546875 375.875 C-71.09079896 377.31689582 -67.8257864 378.4283345 -64.41796875 379.4921875 C-63.72815918 379.71148926 -63.03834961 379.93079102 -62.32763672 380.15673828 C-31.10653511 389.87382864 3.81622392 388.47566705 33.51953125 374.1796875 C37.93864589 372.17701757 40.72933449 371.64489124 45.58203125 372.4921875 C48.61914659 374.47799368 51.06403375 376.89280019 53.58203125 379.4921875 C54.16855469 380.07871094 54.75507813 380.66523438 55.359375 381.26953125 C56.52084501 382.43100126 57.67700155 383.59780604 58.828125 384.76953125 C60.54092965 386.45181823 62.3131057 388.00322509 64.14453125 389.5546875 C68.19750386 393.10204175 72.17302298 396.72473839 76.08203125 400.4296875 C77.03638062 401.28929077 77.03638062 401.28929077 78.01000977 402.16625977 C82.33333279 406.3386938 82.33333279 406.3386938 83.02392578 409.54174805 C83.08604447 413.27455659 82.42620462 416.84129242 81.45703125 420.4296875 C80.06063271 426.9229407 81.18963659 431.8621087 84.26953125 437.6796875 C89.18849803 443.66221467 93.92281987 447.87199995 101.86328125 448.7421875 C108.17649559 449.05395117 113.2795115 448.01738118 118.58203125 444.4921875 C123.60571565 439.89992638 127.05191677 435.3813928 127.98828125 428.51171875 C128.22839072 420.29797407 126.94969536 414.8293416 121.58203125 408.4921875 C115.1681267 402.2832936 107.67008922 401.30745258 99.03515625 400.93359375 C96.11656135 400.40843257 95.48781531 399.69250435 93.58203125 397.4921875 C92.20834593 394.92919323 90.92077336 392.37794069 89.67578125 389.75390625 C89.30980835 388.99551956 88.94383545 388.23713287 88.56677246 387.45576477 C87.39928172 385.03319658 86.24049255 382.60658451 85.08203125 380.1796875 C84.30266865 378.55766134 83.52272692 376.93591331 82.7421875 375.31445312 C81.63835051 373.02105494 80.53535425 370.72729678 79.43688965 368.43132019 C76.63584782 361.50600051 76.63584782 361.50600051 72.58203125 355.4921875 C67.54181179 355.67219534 64.29458226 356.45950867 59.95703125 359.0546875 C56.32340755 361.20609292 53.89021022 362.39389938 49.58203125 361.4921875 C47.20703125 359.9296875 47.20703125 359.9296875 45.58203125 357.4921875 C44.90269549 353.34069119 44.9871345 351.3537621 47.39453125 347.8671875 C55.17157853 342.07252482 62.81518975 339.25508599 72.39453125 339.9296875 C77.30768436 340.00325335 77.30768436 340.00325335 81.73828125 338.20703125 C83.64350624 336.09061387 85.08674329 333.91755889 86.58203125 331.4921875 C87.28585937 330.47382813 87.9896875 329.45546875 88.71484375 328.40625 C97.5508761 315.47984662 104.38806733 301.60011598 108.58203125 286.4921875 C108.77812988 285.84588379 108.97422852 285.19958008 109.17626953 284.53369141 C113.47665075 269.97287486 112.83851826 255.1612406 112.34692383 240.14086914 C112.32802094 239.28062134 112.30911804 238.42037354 112.28964233 237.53405762 C112.25370797 235.90421277 112.19745401 234.27464555 112.11758423 232.6463623 C112.04839202 228.75649451 112.33986634 226.81098862 114.71899414 223.67895508 C117.63636592 221.45068706 120.48712106 219.67260606 123.73828125 217.96875 C124.32186401 217.65948578 124.90544678 217.35022156 125.50671387 217.03158569 C127.36074094 216.05145268 129.221052 215.08404331 131.08203125 214.1171875 C132.90501874 213.15853914 134.72663995 212.19733374 136.5480957 211.23577881 C137.75692481 210.60010704 138.96770684 209.96813513 140.18041992 209.33990479 C143.21072223 207.76687122 146.1970057 206.15142304 149.140625 204.42089844 C150.26597656 203.7715332 151.39132812 203.12216797 152.55078125 202.453125 C153.54529297 201.86063965 154.53980469 201.2681543 155.56445312 200.65771484 C159.34556905 199.19727411 161.67607911 199.57420009 165.58203125 200.4921875 C168.1015625 201.8671875 168.1015625 201.8671875 170.39453125 203.4921875 C176.18891218 207.13562399 181.15799327 208.20621693 187.9296875 207.11328125 C194.78868001 205.24264693 200.38800578 201.2869245 203.96875 195.09375 C206.62201737 189.04243845 207.94589516 183.62553018 205.81640625 177.171875 C202.62932358 169.5077 198.97601767 164.9723354 191.359375 161.44921875 C184.68379767 159.14891432 178.69091599 159.66177204 172.26953125 162.4921875 C164.56834245 166.84927847 161.30405957 173.18537658 158.63671875 181.390625 C157.30491519 184.04436691 156.29409191 184.37745165 153.58203125 185.4921875 C151.36813354 185.94029236 151.36813354 185.94029236 148.93701172 186.22241211 C148.02281464 186.33270248 147.10861755 186.44299286 146.16671753 186.55662537 C144.69780563 186.72388878 144.69780563 186.72388878 143.19921875 186.89453125 C141.12496018 187.14746012 139.05074261 187.40072544 136.9765625 187.65429688 C133.70710148 188.04530175 130.43723188 188.43198944 127.16650391 188.81225586 C124.00921693 189.18220969 120.85427662 189.56859068 117.69921875 189.95703125 C116.71589569 190.06651596 115.73257263 190.17600067 114.7194519 190.2888031 C113.81155914 190.40224564 112.90366638 190.51568817 111.96826172 190.63256836 C110.76724319 190.77341103 110.76724319 190.77341103 109.54196167 190.917099 C107.19425081 191.37812743 107.19425081 191.37812743 105.58203125 194.4921875 C105.32700409 199.5425036 105.32700409 199.5425036 106.08203125 204.4921875 C106.91622651 207.82896853 107.07766678 211.08556581 106.58203125 214.4921875 C104.95703125 216.9921875 104.95703125 216.9921875 102.58203125 218.4921875 C99.64453125 219.0546875 99.64453125 219.0546875 96.58203125 218.4921875 C93.00638102 215.97297939 91.35054315 213.58742557 90.26953125 209.4296875 C88.74485167 200.51845347 88.68827383 192.88503271 92.90234375 184.74609375 C93.83399219 181.65666185 93.03621769 180.3155464 91.58203125 177.4921875 C76.04532272 149.77513257 47.28666327 130.09145057 17.58203125 120.4921875 C13.06645284 119.23276199 8.52360228 118.11009329 3.94018555 117.12573242 C3.15039307 116.95146729 2.36060059 116.77720215 1.546875 116.59765625 C0.85198975 116.45481201 0.15710449 116.31196777 -0.55883789 116.16479492 C-2.89215027 115.32063529 -3.91264091 114.46696321 -5.41796875 112.4921875 C-6.15405273 110.18994141 -6.15405273 110.18994141 -6.6640625 107.46875 C-6.8597583 106.45731934 -7.0554541 105.44588867 -7.25708008 104.40380859 C-7.45454834 103.31922363 -7.6520166 102.23463867 -7.85546875 101.1171875 C-8.17197388 99.44970459 -8.17197388 99.44970459 -8.49487305 97.74853516 C-8.92976202 95.45364187 -9.36014704 93.15789071 -9.78613281 90.86132812 C-10.3776435 87.70721396 -10.99656176 84.56020996 -11.62890625 81.4140625 C-11.99624611 79.56513443 -12.36344137 77.71617763 -12.73046875 75.8671875 C-12.9018335 75.02236816 -13.07319824 74.17754883 -13.24975586 73.30712891 C-14.15380491 68.64899383 -14.78204298 64.26155997 -14.41796875 59.4921875 C-12.35546875 56.9921875 -12.35546875 56.9921875 -9.41796875 54.4921875 C-3.9276125 49.51842932 0.04159361 45.38314812 0.89453125 37.6640625 C1.15893551 31.08700646 0.67643696 25.79552637 -3.41796875 20.4921875 C-8.13219069 15.52207877 -12.50449083 11.96821874 -19.46875 11.12109375 C-30.10463212 10.90455483 -35.42009611 13.62878526 -42.19140625 21.6484375 Z M-169.41796875 62.4921875 C-173.3250445 68.59699336 -173.44320906 75.407945 -172.41796875 82.4921875 C-169.8826422 89.13618154 -165.8028162 94.2786219 -159.41796875 97.4921875 C-154.28086833 99.46799535 -149.31852761 99.81492867 -143.87109375 100.05078125 C-140.85475975 100.59352925 -140.36486372 101.15543334 -138.41796875 103.4921875 C-137.09153807 105.76077593 -135.83966322 108.02096427 -134.625 110.34765625 C-134.27410812 111.00929276 -133.92321625 111.67092926 -133.56169128 112.35261536 C-132.44612241 114.45895801 -131.33821632 116.56922288 -130.23046875 118.6796875 C-129.47380979 120.11159377 -128.71665391 121.54323757 -127.95898438 122.97460938 C-126.1062069 126.47745328 -124.26028976 129.98383355 -122.41796875 133.4921875 C-118.28286588 132.6297834 -115.78351443 130.75012302 -112.41796875 128.1796875 C-111.38671875 127.39980469 -110.35546875 126.61992187 -109.29296875 125.81640625 C-106.82320329 123.81978879 -104.63772877 121.75392528 -102.41796875 119.4921875 C-103.06870361 118.84668945 -103.71943848 118.20119141 -104.38989258 117.53613281 C-106.81282576 115.13028539 -109.23345823 112.72216959 -111.65258789 110.3125 C-112.69822971 109.27187363 -113.74476904 108.23214826 -114.79223633 107.19335938 C-116.30138644 105.69639718 -117.80723373 104.19617882 -119.3125 102.6953125 C-120.21846924 101.79458008 -121.12443848 100.89384766 -122.05786133 99.96582031 C-127.33687484 94.4328768 -127.33687484 94.4328768 -127.73046875 89.8671875 C-127.62850817 86.63443729 -127.04042152 83.69594327 -126.29296875 80.5546875 C-124.89657021 74.0614343 -126.02557409 69.1222663 -129.10546875 63.3046875 C-133.71300557 57.70092651 -138.58312861 53.04127701 -146.06640625 52.19140625 C-156.07182922 52.148403 -162.60314971 55.15551294 -169.41796875 62.4921875 Z M84.98828125 62.546875 C81.84299513 66.89785413 80.93693591 71.16861761 80.58203125 76.4921875 C80.97647093 78.70344024 81.49079247 80.82938725 82.109375 82.98828125 C83.10237681 88.24872884 83.62292643 91.90747769 80.66796875 96.40625 C79.32605469 97.74816406 79.32605469 97.74816406 77.95703125 99.1171875 C77.47645264 99.60864258 76.99587402 100.10009766 76.50073242 100.60644531 C74.8796456 102.25452026 73.23114386 103.87218503 71.58203125 105.4921875 C70.29774955 106.78474208 69.01525077 108.07907018 67.734375 109.375 C64.37111145 112.76884639 60.98287913 116.13602229 57.58203125 119.4921875 C60.89952655 122.93612091 64.28067639 125.92624877 68.14453125 128.7421875 C69.07394531 129.42796875 70.00335938 130.11375 70.9609375 130.8203125 C73.33993073 132.33776272 74.88947753 132.91221981 77.58203125 133.4921875 C77.95489258 132.771521 78.32775391 132.05085449 78.71191406 131.30834961 C80.41710022 128.01467299 82.12454586 124.72217272 83.83203125 121.4296875 C84.41855469 120.29595703 85.00507813 119.16222656 85.609375 117.99414062 C94.02977362 101.76831631 94.02977362 101.76831631 96.58203125 100.4921875 C98.93427384 100.22468896 101.28889979 99.97798644 103.64453125 99.7421875 C111.25052723 98.80853089 117.42687099 97.36412514 122.421875 91.234375 C127.49281104 83.81291096 128.31376581 78.52751859 127.58203125 69.4921875 C125.85874226 62.77465337 121.10979497 58.39731999 115.58203125 54.4921875 C103.95756891 48.55079564 92.63527906 53.12716406 84.98828125 62.546875 Z M-177.6171875 289.01171875 C-179.18436523 289.80352539 -179.18436523 289.80352539 -180.78320312 290.61132812 C-182.42772461 291.44954102 -182.42772461 291.44954102 -184.10546875 292.3046875 C-203.91051633 302.36721616 -203.91051633 302.36721616 -210.41796875 300.4921875 C-212.04156991 299.52406046 -213.64440147 298.520653 -215.23046875 297.4921875 C-221.02484968 293.84875101 -225.99393077 292.77815807 -232.765625 293.87109375 C-239.62461751 295.74172807 -245.22394328 299.6974505 -248.8046875 305.890625 C-251.45795487 311.94193655 -252.78183266 317.35884482 -250.65234375 323.8125 C-247.46526108 331.476675 -243.81195517 336.0120396 -236.1953125 339.53515625 C-229.51973517 341.83546068 -223.52685349 341.32260296 -217.10546875 338.4921875 C-209.40427995 334.13509653 -206.13999707 327.79899842 -203.47265625 319.59375 C-202.10305557 316.86469383 -201.25590741 316.61348885 -198.41796875 315.4921875 C-195.73158945 314.92236031 -193.07838783 314.42382991 -190.37109375 313.984375 C-189.59989197 313.85402863 -188.82869019 313.72368225 -188.03411865 313.58938599 C-185.57970059 313.17596351 -183.12390823 312.77146331 -180.66796875 312.3671875 C-178.99990143 312.0878275 -177.33193136 311.80788617 -175.6640625 311.52734375 C-171.58312746 310.84221684 -167.50093716 310.16508602 -163.41796875 309.4921875 C-165.12716193 303.77759048 -166.84705316 298.0668794 -168.60546875 292.3671875 C-168.94964844 291.25085938 -169.29382813 290.13453125 -169.6484375 288.984375 C-169.90238281 288.16195313 -170.15632813 287.33953125 -170.41796875 286.4921875 C-173.27197003 286.4921875 -175.0765345 287.71888668 -177.6171875 289.01171875 Z M125.58203125 286.4921875 C123.27203125 293.7521875 120.96203125 301.0121875 118.58203125 308.4921875 C123.05032718 309.98161948 126.79280744 310.97453859 131.37109375 311.7109375 C133.27761719 312.02611328 133.27761719 312.02611328 135.22265625 312.34765625 C137.22136519 312.67207723 139.22040275 312.99433174 141.21972656 313.31494141 C143.16690299 313.62898675 145.11277098 313.95111117 147.05859375 314.2734375 C148.21439941 314.45970703 149.37020508 314.64597656 150.56103516 314.83789062 C153.27580968 315.42586507 155.26298731 315.98651685 157.58203125 317.4921875 C158.890625 320.1015625 158.890625 320.1015625 160.01953125 323.2421875 C163.26308771 331.41946688 166.65881492 335.83180081 174.83984375 339.5703125 C181.51603635 341.81473052 187.48433087 341.31767312 193.89453125 338.4921875 C199.86047333 335.14405149 203.14568417 330.62603568 205.95703125 324.4921875 C207.58745302 316.66616301 206.58996852 310.42422548 202.58203125 303.4921875 C198.05411449 298.03415691 192.59733372 294.63993315 185.58203125 293.4921875 C177.83738195 292.85424275 172.79835449 295.76105267 166.5390625 300.09375 C162.76149145 301.8802367 160.42967676 301.77224846 156.58203125 300.4921875 C152.30907333 298.67980106 148.16757802 296.63475056 144.01953125 294.5546875 C141.8114997 293.4590015 139.60191165 292.36644543 137.390625 291.27734375 C136.41923584 290.79144775 135.44784668 290.30555176 134.44702148 289.80493164 C131.12202882 288.21919348 131.12202882 288.21919348 125.58203125 286.4921875 Z M-34.41796875 402.4921875 C-33.37678622 412.16031099 -32.3096118 421.7748363 -30.78515625 431.37890625 C-30.38094665 434.80608762 -30.22393473 438.0449873 -30.41796875 441.4921875 C-32.48046875 443.9921875 -32.48046875 443.9921875 -35.41796875 446.4921875 C-40.908325 451.46594568 -44.87753111 455.60122688 -45.73046875 463.3203125 C-45.99487301 469.89736854 -45.51237446 475.18884863 -41.41796875 480.4921875 C-36.80150976 485.35922673 -32.42712216 489.01661896 -25.5859375 489.828125 C-17.6888609 489.93162535 -12.27763257 489.15313596 -6.4453125 483.62109375 C-0.56105621 477.22936567 1.09110791 472.16342281 0.87890625 463.484375 C0.03164272 454.94485051 -4.91405261 450.71949038 -11.2734375 445.375 C-13.41796875 443.4921875 -13.41796875 443.4921875 -14.41796875 441.4921875 C-14.35996326 432.13880279 -12.83900932 422.82809059 -11.43457031 413.60229492 C-11.23879395 412.30642456 -11.23879395 412.30642456 -11.0390625 410.984375 C-10.91974365 410.21464355 -10.8004248 409.44491211 -10.67749023 408.65185547 C-10.33842943 406.1928169 -10.33842943 406.1928169 -10.41796875 402.4921875 C-18.33796875 402.4921875 -26.25796875 402.4921875 -34.41796875 402.4921875 Z " fill="#000000" transform="translate(278.41796875,5.5078125)"/>
<path d="M0 0 C8.80288754 6.34043826 15.4186507 14.72648904 17.58203125 25.4921875 C18.92007691 37.90936834 17.85729499 48.88109459 10.39453125 59.2421875 C3.58210875 67.3274193 -4.72289951 73.55522767 -15.48876953 74.71533203 C-28.40007937 75.61089799 -39.16843729 74.04490094 -49.3515625 65.46484375 C-57.86959925 57.33325857 -62.42046403 48.68416257 -62.88867188 36.85693359 C-63.04371176 24.34263074 -60.22647828 14.71931927 -51.41796875 5.4921875 C-37.63784493 -7.66275112 -16.31305228 -10.17259803 0 0 Z M-42.19140625 21.6484375 C-46.12351302 27.55912028 -46.11660152 33.61334174 -45.41796875 40.4921875 C-43.64454442 47.13691664 -38.97130405 51.66586709 -33.41796875 55.4921875 C-27.41909871 58.43281007 -20.53513345 58.59102538 -14.10546875 56.875 C-7.97664014 54.16969675 -3.17844083 49.08355055 -0.24609375 43.1015625 C1.66008982 37.09528598 1.64641812 29.98927192 -0.91796875 24.1796875 C-4.39834133 18.24695275 -9.85358805 13.56055006 -16.41796875 11.4921875 C-28.14191837 10.06609888 -34.72539236 12.80600765 -42.19140625 21.6484375 Z " fill="#000000" transform="translate(214.41796875,253.5078125)"/>
<path d="M0 0 C8.80288754 6.34043826 15.4186507 14.72648904 17.58203125 25.4921875 C18.92007691 37.90936834 17.85729499 48.88109459 10.39453125 59.2421875 C3.58210875 67.3274193 -4.72289951 73.55522767 -15.48876953 74.71533203 C-28.40007937 75.61089799 -39.16843729 74.04490094 -49.3515625 65.46484375 C-57.86959925 57.33325857 -62.42046403 48.68416257 -62.88867188 36.85693359 C-63.04371176 24.34263074 -60.22647828 14.71931927 -51.41796875 5.4921875 C-37.63784493 -7.66275112 -16.31305228 -10.17259803 0 0 Z M-42.19140625 21.6484375 C-46.12351302 27.55912028 -46.11660152 33.61334174 -45.41796875 40.4921875 C-43.64454442 47.13691664 -38.97130405 51.66586709 -33.41796875 55.4921875 C-27.41909871 58.43281007 -20.53513345 58.59102538 -14.10546875 56.875 C-7.97664014 54.16969675 -3.17844083 49.08355055 -0.24609375 43.1015625 C1.66008982 37.09528598 1.64641812 29.98927192 -0.91796875 24.1796875 C-4.39834133 18.24695275 -9.85358805 13.56055006 -16.41796875 11.4921875 C-28.14191837 10.06609888 -34.72539236 12.80600765 -42.19140625 21.6484375 Z " fill="#000000" transform="translate(334.41796875,189.5078125)"/>
<path d="M0 0 C8.34468007 4.97590182 13.53387008 11.86345977 16.109375 21.2578125 C17.10789012 32.35758522 16.45884702 41.9922991 9.359375 51.0703125 C3.68970122 57.1408723 -3.36319277 60.85433149 -11.66015625 61.59375 C-19.4412515 61.76746925 -26.16911331 61.58646603 -32.890625 57.2578125 C-33.59703125 56.82210937 -34.3034375 56.38640625 -35.03125 55.9375 C-41.93709584 51.25687115 -45.68778524 45.25759899 -47.890625 37.2578125 C-48.88914012 26.15803978 -48.24009702 16.5233259 -41.140625 7.4453125 C-30.84272373 -3.5807232 -13.59449082 -6.52353083 0 0 Z M-29.265625 20.8828125 C-31.46970393 25.46051489 -31.6877889 29.26333661 -30.890625 34.2578125 C-28.56093569 39.09639798 -25.72921048 41.92812319 -20.890625 44.2578125 C-15.89614911 45.0549764 -12.09332739 44.83689143 -7.515625 42.6328125 C-3.93154787 39.39007605 -1.29527259 36.79305354 -0.5078125 31.859375 C-0.25178581 26.17558256 -0.95435568 22.60842595 -4.890625 18.2578125 C-9.24123845 14.32154318 -12.80839506 13.61897331 -18.4921875 13.875 C-23.42586604 14.66246009 -26.02288855 17.29873537 -29.265625 20.8828125 Z " fill="#000000" transform="translate(311.890625,282.7421875)"/>
<path d="M0 0 C8.34468007 4.97590182 13.53387008 11.86345977 16.109375 21.2578125 C17.10789012 32.35758522 16.45884702 41.9922991 9.359375 51.0703125 C3.68970122 57.1408723 -3.36319277 60.85433149 -11.66015625 61.59375 C-19.4412515 61.76746925 -26.16911331 61.58646603 -32.890625 57.2578125 C-33.59703125 56.82210937 -34.3034375 56.38640625 -35.03125 55.9375 C-41.93709584 51.25687115 -45.68778524 45.25759899 -47.890625 37.2578125 C-48.88914012 26.15803978 -48.24009702 16.5233259 -41.140625 7.4453125 C-30.84272373 -3.5807232 -13.59449082 -6.52353083 0 0 Z M-29.265625 20.8828125 C-31.46970393 25.46051489 -31.6877889 29.26333661 -30.890625 34.2578125 C-28.56093569 39.09639798 -25.72921048 41.92812319 -20.890625 44.2578125 C-15.89614911 45.0549764 -12.09332739 44.83689143 -7.515625 42.6328125 C-3.93154787 39.39007605 -1.29527259 36.79305354 -0.5078125 31.859375 C-0.25178581 26.17558256 -0.95435568 22.60842595 -4.890625 18.2578125 C-9.24123845 14.32154318 -12.80839506 13.61897331 -18.4921875 13.875 C-23.42586604 14.66246009 -26.02288855 17.29873537 -29.265625 20.8828125 Z " fill="#000000" transform="translate(231.890625,162.7421875)"/>
<path d="M0 0 C2.5 1.5 2.5 1.5 4 4 C4.791013 8.02098277 4.62153384 10.96411027 2.5 14.5 C-1.02214801 16.6132888 -3.99247759 16.81467088 -8 16 C-10.75171298 14.09496794 -11.71801879 12.7143524 -12.9375 9.625 C-13.0221688 6.06891031 -11.83947665 3.99766565 -10 1 C-6.79158965 -0.60420518 -3.4806013 -0.47462745 0 0 Z " fill="#000000" transform="translate(244,344)"/>
<path d="M0 0 C2.5 1.5 2.5 1.5 4 4 C4.791013 8.02098277 4.62153384 10.96411027 2.5 14.5 C-1.02214801 16.6132888 -3.99247759 16.81467088 -8 16 C-10.75171298 14.09496794 -11.71801879 12.7143524 -12.9375 9.625 C-13.0221688 6.06891031 -11.83947665 3.99766565 -10 1 C-6.79158965 -0.60420518 -3.4806013 -0.47462745 0 0 Z " fill="#000000" transform="translate(356,280)"/>
<path d="M0 0 C2.5 1.5 2.5 1.5 4 4 C4.791013 8.02098277 4.62153384 10.96411027 2.5 14.5 C-1.02214801 16.6132888 -3.99247759 16.81467088 -8 16 C-10.75171298 14.09496794 -11.71801879 12.7143524 -12.9375 9.625 C-13.0221688 6.06891031 -11.83947665 3.99766565 -10 1 C-6.79158965 -0.60420518 -3.4806013 -0.47462745 0 0 Z " fill="#000000" transform="translate(260,248)"/>
<path d="M0 0 C2.5 1.5 2.5 1.5 4 4 C4.791013 8.02098277 4.62153384 10.96411027 2.5 14.5 C-1.02214801 16.6132888 -3.99247759 16.81467088 -8 16 C-10.75171298 14.09496794 -11.71801879 12.7143524 -12.9375 9.625 C-13.0221688 6.06891031 -11.83947665 3.99766565 -10 1 C-6.79158965 -0.60420518 -3.4806013 -0.47462745 0 0 Z " fill="#000000" transform="translate(172,216)"/>
<path d="M0 0 C2.5 1.5 2.5 1.5 4 4 C4.791013 8.02098277 4.62153384 10.96411027 2.5 14.5 C-1.02214801 16.6132888 -3.99247759 16.81467088 -8 16 C-10.75171298 14.09496794 -11.71801879 12.7143524 -12.9375 9.625 C-13.0221688 6.06891031 -11.83947665 3.99766565 -10 1 C-6.79158965 -0.60420518 -3.4806013 -0.47462745 0 0 Z " fill="#000000" transform="translate(284,152)"/>
</svg>
